:SAMPLES-PER-SECOND 30
:FRAME-RANGE 1-2643
:FULLY-SPECIFIED
:DEGREES
248
root  33.5794 34.8214 12.5049 178.057 28.7145 174.979
RightUpLeg  -11.9765 5.23157 -19.0012
RightLeg  75.3365 0.478433 0.95212
RightFoot  6.46513 -2.17017 14.0742
RightToes  7.56698e-010 0 -3.6325e-017
Spine  13.2768 3.44923 0.654125
Spine1  -0.237597 4.99637 -12.2669
HEad  3.27841 23.9599 -5.53869
LeftShoulder1  1.46051 -0.107803 -34.3689
LeftArm  12.0264 -1.2592 -26.8062
LeftForeArm  2.67006 -1.72721 -18.7117
LeftHand  0.280875 -0.686394 -5.32674
RightShoulder  11.3353 18.1944 45.6198
RightArm  29.5408 7.1004 16.9965
RightForeArm  -3.93379 22.6923 5.39708
RightHand  -0.0874044 5.05197 -1.27583
LeftUpLeg  -27.9122 9.85858 -19.5847
LeftLeg  49.8349 9.49021 12.3066
LeftFoot  -24.4124 1.10805 8.37108
LeftToes  1.48244e-010 1.61973e-010 3.308e-011
249
root  34.3044 34.5508 10.751 177.839 25.5658 174.486
RightUpLeg  -19.6454 4.80568 -19.2287
RightLeg  80.5487 -0.130286 -3.06189
RightFoot  2.88441 -1.39779 11.3263
RightToes  7.56698e-010 0 -3.6325e-017
Spine  13.6777 2.49773 -1.01681
Spine1  -0.661624 3.71759 -11.7073
HEad  3.91905 23.7171 -5.82842
LeftShoulder1  1.6335 -0.419507 -35.5471
LeftArm  15.1371 -8.9708 -30.424
LeftForeArm  3.75188 -4.06215 -18.1724
LeftHand  0.229563 -0.920931 -4.15435
RightShoulder  11.0241 17.3325 46.2371
RightArm  30.3619 4.3862 18.2588
RightForeArm  2.88517 16.0038 10.6677
RightHand  0.0160771 5.4651 -0.145865
LeftUpLeg  -24.3586 8.87412 -20.0938
LeftLeg  51.333 8.41144 11.5984
LeftFoot  -28.4243 1.30507 7.53512
LeftToes  1.48244e-010 1.61973e-010 3.308e-011
250
root  35.0248 34.499 8.87499 178.07 22.2446 175.11
RightUpLeg  -26.6941 2.679 -17.9037
RightLeg  81.0195 -0.690174 -7.78999
RightFoot  -1.43059 -0.745919 8.47501
RightToes  7.56698e-010 0 -3.6325e-017
Spine  13.5258 1.72335 -1.81918
Spine1  -0.403029 2.72596 -10.1949
HEad  3.89325 22.642 -6.18822
LeftShoulder1  1.8443 -0.924293 -35.5683
LeftArm  22.8748 -16.149 -36.24
LeftForeArm  2.4823 -8.46232 -16.7063
LeftHand  0.167357 -1.13699 -2.88239
RightShoulder  10.3867 15.7513 47.1873
RightArm  32.4732 0.431872 17.9838
RightForeArm  7.71298 12.0576 13.816
RightHand  0.0451223 5.80441 0.140169
LeftUpLeg  -19.6702 8.59105 -19.0919
LeftLeg  51.1456 6.88218 9.57246
LeftFoot  -31.8219 1.48726 7.15701
LeftToes  1.48244e-010 1.61973e-010 3.308e-011
251
root  35.6998 34.6497 6.87173 178.863 18.9311 176.256
RightUpLeg  -32.9483 -0.686387 -15.5072
RightLeg  76.951 -2.03074 -11.5735
RightFoot  -4.47827 -0.545656 8.57435
RightToes  7.56698e-010 0 -3.6325e-017
Spine  12.8738 0.88909 -2.16102
Spine1  -0.379529 1.69384 -8.1059
HEad  3.70228 21.595 -6.30751
LeftShoulder1  1.93273 -1.25599 -34.5489
LeftArm  35.1082 -21.6581 -43.6305
LeftForeArm  0.0997469 -14.4193 -13.1379
LeftHand  0.133448 -1.90646 -1.96619
RightShoulder  9.06542 12.9806 48.1506
RightArm  39.0634 -4.05969 17.1807
RightForeArm  7.03585 11.3757 14.7028
RightHand  -0.0348791 5.42163 -0.690269
LeftUpLeg  -14.5184 7.86885 -17.268
LeftLeg  49.3063 5.62597 7.45496
LeftFoot  -34.03 1.58754 6.87639
LeftToes  1.48244e-010 1.61973e-010 3.308e-011
252
root  36.3525 35.0206 4.73285 179.756 16.1908 177.915
RightUpLeg  -37.5482 -4.18249 -11.7704
RightLeg  68.8865 -4.6513 -13.8522
RightFoot  -5.92955 -0.502648 9.75662
RightToes  7.56698e-010 0 -3.6325e-017
Spine  12.1344 0.0598995 -1.96936
Spine1  -0.582759 0.659764 -5.42733
HEad  3.69632 21.4579 -6.44329
LeftShoulder1  1.92145 -1.36769 -33.4016
LeftArm  44.7055 -24.6845 -50.7277
LeftForeArm  -1.19511 -20.5347 -7.13604
LeftHand  0.141003 -2.8194 -1.78182
RightShoulder  7.093 9.37222 48.2569
RightArm  47.156 -9.20651 16.3563
RightForeArm  1.46848 13.5855 13.6992
RightHand  -0.0448802 5.16146 -0.801771
LeftUpLeg  -8.56208 7.10303 -14.5768
LeftLeg  45.5286 4.48171 5.32365
LeftFoot  -34.9692 1.47656 6.03989
LeftToes  1.48244e-010 1.61973e-010 3.308e-011
253
root  36.9543 35.5236 2.51072 -178.934 14.3597 -179.285
RightUpLeg  -40.3489 -7.34203 -5.94126
RightLeg  57.446 -8.08149 -13.7919
RightFoot  -6.12295 -0.509365 10.2346
RightToes  7.56698e-010 0 -3.6325e-017
Spine  11.3006 -0.965615 -0.28399
Spine1  -1.00116 -0.501095 -2.52845
HEad  4.12542 22.6775 -6.95795
LeftShoulder1  1.8635 -1.33722 -32.457
LeftArm  37.3309 -24.3028 -54.9257
LeftForeArm  10.1159 -28.1463 -5.53608
LeftHand  0.135805 -3.26577 -1.58657
RightShoulder  5.017 5.86417 46.9158
RightArm  54.05 -14.7008 15.8583
RightForeArm  -6.24696 16.7221 11.4946
RightHand  0.0249034 4.95188 -0.0229033
LeftUpLeg  -2.8207 6.34154 -10.5267
LeftLeg  41.1832 3.0163 3.23767
LeftFoot  -34.2342 1.13998 4.60386
LeftToes  1.48244e-010 1.61973e-010 3.308e-011
254
root  37.5927 36.0419 0.212864 -178.325 14.1287 -176.576
RightUpLeg  -40.1003 -9.44102 0.635341
RightLeg  43.1747 -9.39135 -9.596
RightFoot  -5.2305 -0.605373 10.643
RightToes  7.56698e-010 0 -3.6325e-017
Spine  10.5058 -1.74055 1.53536
Spine1  -0.534281 -1.45754 -0.153593
HEad  4.53101 24.987 -7.92973
LeftShoulder1  1.72685 -0.998134 -32.3169
LeftArm  27.9467 -21.1287 -55.3836
LeftForeArm  18.1213 -38.6464 -7.82605
LeftHand  0.129209 -2.64002 -1.66527
RightShoulder  3.47889 3.2552 45.0667
RightArm  57.3697 -19.2538 15.298
RightForeArm  -10.1051 18.8697 9.48807
RightHand  0.0454073 4.73678 0.22481
LeftUpLeg  2.40597 7.20885 -6.06531
LeftLeg  38.564 0.800176 1.07542
LeftFoot  -30.7982 0.353645 0.979595
LeftToes  1.48244e-010 1.61973e-010 3.308e-011
255
root  38.377 36.2826 -2.16501 -179.042 14.7948 -176.443
RightUpLeg  -37.7735 -11.9472 5.47571
RightLeg  29.5125 -4.84469 -3.19197
RightFoot  0.641913 -1.57814 14.9991
RightToes  7.56698e-010 0 -3.6325e-017
Spine  9.90493 -2.48142 0.475736
Spine1  0.239964 -2.35666 0.506343
HEad  5.08455 27.7444 -7.00355
LeftShoulder1  1.56846 -0.546976 -32.672
LeftArm  21.5253 -16.9046 -52.6955
LeftForeArm  18.5854 -46.2377 -10.3766
LeftHand  0.301478 -3.06267 -3.91875
RightShoulder  2.47871 1.41101 44.1717
RightArm  60.6652 -22.4599 14.6825
RightForeArm  -13.4382 21.0329 7.40507
RightHand  -0.0171924 4.45655 -0.488274
LeftUpLeg  5.30313 9.66785 -3.27968
LeftLeg  41.3793 -1.84836 -1.34478
LeftFoot  -22.8756 -0.44251 -5.73635
LeftToes  1.48244e-010 1.61973e-010 3.308e-011
256
root  39.1662 35.9727 -4.39714 -179.724 14.9651 -177.186
RightUpLeg  -36.1605 -17.8241 11.0976
RightLeg  20.2634 1.91067 0.569085
RightFoot  6.45296 -2.92363 18.8074
RightToes  7.56698e-010 0 -3.6325e-017
Spine  9.28419 -3.39715 -0.0111151
Spine1  1.30963 -2.91737 -0.699373
HEad  6.81069 29.3556 -4.81025
LeftShoulder1  1.38504 -0.0691869 -32.7092
LeftArm  17.6925 -13.3426 -48.9511
LeftForeArm  18.4432 -45.7418 -10.1953
LeftHand  0.360008 -3.11794 -4.68789
RightShoulder  1.08982 -1.24506 42.4327
RightArm  60.7449 -25.2715 15.1134
RightForeArm  -12.4727 23.3506 5.724
RightHand  -0.0123851 4.36455 -0.429797
LeftUpLeg  2.73935 9.63517 -1.48842
LeftLeg  52.0212 -4.20382 -5.29457
LeftFoot  -9.85025 0.232713 -13.3158
LeftToes  1.48244e-010 1.61973e-010 3.308e-011
257
root  39.8528 35.3626 -6.20731 179.824 14.8179 -175.328
RightUpLeg  -38.0508 -19.1013 16.5673
RightLeg  25.0895 1.30618 0.731028
RightFoot  10.0337 1.85005 -9.40797
RightToes  7.56698e-010 0 -3.6325e-017
Spine  11.2246 -3.60445 3.78186
Spine1  2.56194 -2.50886 -1.46433
HEad  7.31887 29.128 -3.99578
LeftShoulder1  1.34141 0.0732527 -33.043
LeftArm  17.6862 -11.5285 -44.8423
LeftForeArm  15.5592 -38.2142 -7.85903
LeftHand  0.337091 -3.50618 -4.15486
RightShoulder  -0.196785 -3.89564 40.2578
RightArm  56.6711 -28.4263 13.8037
RightForeArm  -7.87369 25.5541 5.87849
RightHand  0.0135005 4.87366 -0.147118
LeftUpLeg  -3.62174 7.01519 2.38779
LeftLeg  66.9975 -4.29149 -10.3194
LeftFoot  -0.680471 1.52744 -16.2369
LeftToes  1.48244e-010 1.61973e-010 3.308e-011
258
root  40.4752 34.5823 -8.01751 177.606 15.4013 -175.288
RightUpLeg  -39.1514 -9.59655 12.6153
RightLeg  39.6525 -6.13768 -5.7204
RightFoot  1.65753 0.844499 -7.29734
RightToes  7.56698e-010 0 -3.6325e-017
Spine  15.7741 -3.69539 4.73958
Spine1  0.695334 -1.61327 -3.70359
HEad  5.2185 29.1623 -4.31615
LeftShoulder1  1.29686 0.125279 -32.3285
LeftArm  17.8135 -9.43542 -41.011
LeftForeArm  11.4809 -30.3092 -5.97735
LeftHand  0.15095 -2.67585 -1.96865
RightShoulder  -0.922138 -5.50869 38.9719
RightArm  59.5078 -27.0253 13.2068
RightForeArm  -8.37442 23.8592 5.51762
RightHand  -0.0817644 4.81755 -1.2268
LeftUpLeg  -10.4711 4.87637 4.73474
LeftLeg  81.0461 -1.31281 -8.5337
LeftFoot  -4.87434 0.890774 -15.1785
LeftToes  1.48244e-010 1.61973e-010 3.308e-011
259
root  41.0041 34.079 -9.77098 175.523 17.8715 -173.928
RightUpLeg  -37.1629 -6.96949 13.544
RightLeg  47.4986 -6.01365 -7.3381
RightFoot  -3.92232 0.458871 -7.46951
RightToes  7.56698e-010 0 -3.6325e-017
Spine  19.139 -3.67655 5.16026
Spine1  2.6502 -1.10693 -4.3217
HEad  0.134956 31.6867 -6.12022
LeftShoulder1  1.28883 0.0233764 -30.9711
LeftArm  10.6253 -3.8224 -35.4918
LeftForeArm  8.00054 -27.2672 -5.44685
LeftHand  0.117558 -2.64444 -1.49523
RightShoulder  -0.282065 -4.11876 37.5152
RightArm  56.5331 -22.0804 12.6117
RightForeArm  -8.05389 21.4037 6.61618
RightHand  0.0229105 4.83904 -0.0387989
LeftUpLeg  -17.895 2.80527 8.80374
LeftLeg  88.3796 -0.224127 -5.6334
LeftFoot  -7.02084 0.392232 -9.27013
LeftToes  1.48244e-010 1.61973e-010 3.308e-011
260
root  41.5388 33.9584 -11.5259 176.071 20.4363 -173.235
RightUpLeg  -36.044 -6.32331 14.6717
RightLeg  51.6354 -4.89837 -7.01465
RightFoot  -8.64524 0.132354 -8.08173
RightToes  7.56698e-010 0 -3.6325e-017
Spine  20.888 -2.61697 3.6202
Spine1  2.4048 -0.895389 -3.55125
HEad  -1.35624 34.7916 -5.84801
LeftShoulder1  1.12541 0.337611 -29.4623
LeftArm  2.34649 5.71073 -28.9677
LeftForeArm  8.73336 -28.8599 -5.78053
LeftHand  0.241919 -3.3429 -2.97923
RightShoulder  0.117587 -3.18401 34.321
RightArm  51.9668 -18.8971 11.2716
RightForeArm  -11.7673 21.1377 7.04813
RightHand  -0.0500694 4.34382 -0.878531
LeftUpLeg  -27.852 1.03176 12.7577
LeftLeg  86.7096 -0.300614 -1.88028
LeftFoot  -9.78131 0.157827 -7.28567
LeftToes  1.48244e-010 1.61973e-010 3.308e-011
261
root  41.9866 34.086 -13.0442 177.579 26.1976 -174.313
RightUpLeg  -36.0131 -4.71975 14.4511
RightLeg  54.2237 -2.63801 -4.368
RightFoot  -10.724 -0.0271566 -8.35337
RightToes  7.56698e-010 0 -3.6325e-017
Spine  21.7584 -1.11827 1.41017
Spine1  0.129744 0.431437 -7.79785
HEad  -5.09888 38.6794 -6.31655
LeftShoulder1  0.720289 1.33102 -26.9948
LeftArm  -6.32847 18.6962 -21.9337
LeftForeArm  11.3785 -34.9639 -7.18723
LeftHand  0.292409 -3.26963 -3.68745
RightShoulder  0.17287 -3.003 30.4735
RightArm  46.787 -16.4189 10.081
RightForeArm  -14.3626 22.6181 6.06378
RightHand  -0.107149 3.70822 -1.62459
LeftUpLeg  -35.4829 3.69166 15.7161
LeftLeg  75.7032 -0.583245 -1.46018
LeftFoot  -11.1323 0.0835888 -9.31971
LeftToes  1.48244e-010 1.61973e-010 3.308e-011
262
root  42.3723 34.3333 -14.2478 179.257 31.244 -175.212
RightUpLeg  -38.2893 -7.91363 14.3664
RightLeg  58.2355 1.57956 2.27136
RightFoot  -7.49535 0.240224 -8.63626
RightToes  7.56698e-010 0 -3.6325e-017
Spine  23.7005 0.276957 -2.03924
Spine1  -2.30089 1.26349 -11.2679
HEad  -11.7229 41.6055 -9.1962
LeftShoulder1  0.303648 2.5387 -25.2261
LeftArm  -14.0481 31.1155 -15.6432
LeftForeArm  12.2776 -41.1333 -8.9842
LeftHand  0.270225 -2.61239 -3.72321
RightShoulder  0.0797888 -3.22211 25.0575
RightArm  45.4147 -15.6508 8.07146
RightForeArm  -15.4143 23.7523 5.83902
RightHand  -0.267187 3.18271 -3.85386
LeftUpLeg  -39.0043 4.86946 18.7883
LeftLeg  57.5983 -3.36207 -5.18362
LeftFoot  -8.52241 0.397761 -14.0409
LeftToes  1.48244e-010 1.61973e-010 3.308e-011
